<svg viewBox="0 0 100 100" xmlns="http://www.w3.org/2000/svg" xmlns:xlink="http://www.w3.org/1999/xlink" width="100" height="100">
<defs>


 <g id="bg" fill="#c1bebc" class="bg"><path d="M99.925,42.61c-1.622-14.982-18.999-25.346-37.999-31.846C48.911,6.313,33.23,3.753,20.76,5.614 C3.66,8.165-0.773,21.814,0.105,34.812c0.514,7.615,2.582,17.84,7.989,29.247c8.308,17.523,14.814,25.686,23.431,29.113 c10.135,4.032,23.358,0.666,30.402-3.082c6.005-3.195,13.062-8.379,18.999-13.498C86.1,72.131,101.191,54.311,99.925,42.61z"/></g> 
 <path fill="#cd3f42" id="i-585" d="M38.963,20.34C38.371,12.918,30.95,8,24,8S9.629,12.918,9.038,20.34C3.973,20.818,0,25.035,0,30.148 C0,35.581,4.486,40,10,40h28c5.514,0,10-4.419,10-9.852C48,25.035,44.027,20.818,38.963,20.34z M38,38H10c-4.411,0-8-3.522-8-7.852 c0-4.33,3.589-7.854,8-7.854h1v-1C11,14.539,17.722,10,24,10s13,4.539,13,11.295v1h1c4.411,0,8,3.523,8,7.854 C46,34.478,42.411,38,38,38z"/> 
</defs>
<use x="0" y="0" class="bg" xlink:href="#bg"/>
<use x="26" y="26" xlink:href="#i-585"/>
<use x="0" y="0" xlink:href="#fg"/>
</svg>