<svg viewBox="0 0 100 100" xmlns="http://www.w3.org/2000/svg" xmlns:xlink="http://www.w3.org/1999/xlink" width="100" height="100">
<defs>


 <g id="bg" fill="#c1bebc" class="bg"><path d="M99.925,42.61c-1.622-14.982-18.999-25.346-37.999-31.846C48.911,6.313,33.23,3.753,20.76,5.614 C3.66,8.165-0.773,21.814,0.105,34.812c0.514,7.615,2.582,17.84,7.989,29.247c8.308,17.523,14.814,25.686,23.431,29.113 c10.135,4.032,23.358,0.666,30.402-3.082c6.005-3.195,13.062-8.379,18.999-13.498C86.1,72.131,101.191,54.311,99.925,42.61z"/></g> 
 <path fill="#cd3f42" id="i-586" d="M38,35c5.514,0,10-4.42,10-9.852c0-5.113-3.974-9.33-9.038-9.809C38.371,7.918,30.95,3,24,3S9.629,7.918,9.037,15.34 C3.973,15.818,0,20.035,0,25.148C0,30.58,4.486,35,10,35h12v4h-4.52C17.133,39,16,39.145,16,41H6v2h10c0,1.855,1.133,2,1.48,2H28.52 c0.348,0,1.48-0.145,1.48-2h10v-2H30c0-1.855-1.133-2-1.48-2H24v-4H38z M28,41v2H18v-2h4h2H28z M10,33c-4.411,0-8-3.521-8-7.852 s3.589-7.854,8-7.854h1v-1C11,9.539,17.722,5,24,5s13,4.539,13,11.295v1h1c4.411,0,8,3.523,8,7.854S42.411,33,38,33H10z"/> 
</defs>
<use x="0" y="0" class="bg" xlink:href="#bg"/>
<use x="26" y="26" xlink:href="#i-586"/>
<use x="0" y="0" xlink:href="#fg"/>
</svg>