<svg viewBox="0 0 100 100" xmlns="http://www.w3.org/2000/svg" xmlns:xlink="http://www.w3.org/1999/xlink" width="100" height="100">
<defs>


 <g id="bg" fill="#c1bebc" class="bg"><path d="M99.925,42.61c-1.622-14.982-18.999-25.346-37.999-31.846C48.911,6.313,33.23,3.753,20.76,5.614 C3.66,8.165-0.773,21.814,0.105,34.812c0.514,7.615,2.582,17.84,7.989,29.247c8.308,17.523,14.814,25.686,23.431,29.113 c10.135,4.032,23.358,0.666,30.402-3.082c6.005-3.195,13.062-8.379,18.999-13.498C86.1,72.131,101.191,54.311,99.925,42.61z"/></g> 
 <path fill="#cd3f42" id="i-1360" d="M10.981,46.84L10.792,48H43l-0.188-1.16c-0.04-0.2-0.657-3.43-5.962-5.38V38h-3.981v2.44C31.176,40.16,29.206,40,26.896,40 c-2.339,0-4.33,0.17-6.032,0.45L14.78,28.234c0.102-0.397,0.173-0.806,0.173-1.234c0-0.606-0.125-1.181-0.323-1.719l8.038-12.114 l0.18,0.181c-0.499,3.834,1.133,8.138,4.34,11.359l0.703,0.707l3.505-3.522c0.914,0.807,2.148,1.28,3.462,1.28 c1.42,0,2.765-0.534,3.69-1.465c0.926-0.93,1.457-2.281,1.457-3.707c0-1.319-0.471-2.561-1.273-3.478l3.507-3.523l-0.706-0.707 C38.785,7.54,34.97,5.897,31.326,5.897c-0.367,0-0.729,0.017-1.082,0.052l-4.635-4.656C24.755,0.435,23.847,0,22.912,0 c-1.593,0-2.727,1.246-3.405,1.99c-0.103,0.114-0.198,0.219-0.281,0.303c-0.981,0.986-1.82,1.886-2.145,2.912 c-0.284,0.9-0.143,1.771,0.434,2.64L7.758,22.548C6.13,23.371,5,25.048,5,27c0,2.125,1.333,3.933,3.197,4.655l5.661,11.375 C11.369,44.79,11.012,46.69,10.981,46.84z M37.141,20.293c-0.556,0.559-1.388,0.879-2.282,0.879c-0.785,0-1.509-0.258-2.053-0.695 l4.518-4.539c0.436,0.547,0.692,1.274,0.692,2.062C38.016,18.899,37.697,19.734,37.141,20.293z M18.978,5.81 c0.188-0.595,0.92-1.364,1.655-2.103c0.102-0.103,0.217-0.229,0.343-0.367C21.462,2.807,22.196,2,22.912,2 c0.389,0,0.823,0.238,1.291,0.707l5.33,5.355l0.495-0.073c0.415-0.062,0.852-0.092,1.299-0.092c2.819,0,5.771,1.156,8.068,3.131 L27.916,22.562c-2.438-2.81-3.589-6.326-3.027-9.38l0.095-0.517l-5.347-5.372C18.782,6.433,18.915,6.012,18.978,5.81z M18.887,9.367 l2.352,2.363l-7.774,11.712c-0.786-0.778-1.833-1.274-2.992-1.392L18.887,9.367z M6.991,27c0-1.654,1.339-3,2.986-3 s2.986,1.346,2.986,3s-1.339,3-2.986,3S6.991,28.654,6.991,27z M10.559,31.94c1.145-0.136,2.177-0.642,2.949-1.424l5.177,10.403 c-1.214,0.311-2.239,0.69-3.105,1.11L10.559,31.94z M26.896,42c8.838,0,12.122,2.47,13.308,4H13.58 C14.754,44.48,18.028,42,26.896,42z"/> 
</defs>
<use x="0" y="0" class="bg" xlink:href="#bg"/>
<use x="26" y="26" xlink:href="#i-1360"/>
<use x="0" y="0" xlink:href="#fg"/>
</svg>