<svg viewBox="0 0 100 100" xmlns="http://www.w3.org/2000/svg" xmlns:xlink="http://www.w3.org/1999/xlink" width="100" height="100">
<defs>


 <g id="bg" fill="#c1bebc" class="bg"><path d="M99.925,42.61c-1.622-14.982-18.999-25.346-37.999-31.846C48.911,6.313,33.23,3.753,20.76,5.614 C3.66,8.165-0.773,21.814,0.105,34.812c0.514,7.615,2.582,17.84,7.989,29.247c8.308,17.523,14.814,25.686,23.431,29.113 c10.135,4.032,23.358,0.666,30.402-3.082c6.005-3.195,13.062-8.379,18.999-13.498C86.1,72.131,101.191,54.311,99.925,42.61z"/></g> 
 <path fill="#cd3f42" id="i-2309" d="M47.978,0.929l-0.074-0.836l-0.836-0.074c0,0-0.355-0.032-0.997-0.032c-3.193,0-14.279,0.822-22.865,11.397l-6.214,7.653 v-0.023H8.577l-7.765,7.764l9.193,1.021l-3.015,5.979v0.236c0,0.058,0.022,0.881,0.474,1.997c-0.877,0.645-1.749,0.967-2.599,1.278 c-3.033,1.112-4.875,2.322-4.875,9.725v1h1c7.401,0,8.611-1.842,9.724-4.874c0.312-0.851,0.635-1.723,1.28-2.6 c1.116,0.451,1.939,0.474,1.997,0.474h0.236l5.98-2.995l1.019,9.174l7.764-7.765v-8.414h-0.057l7.678-6.224 C49.009,14.718,48.025,1.487,47.978,0.929z M5.17,25.249l4.235-4.235h5.981l-3.999,4.925L5.17,25.249z M8.837,42.45 C8.066,44.552,7.585,45.865,2.003,46c0.136-5.581,1.45-6.062,3.551-6.833c0.856-0.313,1.863-0.688,2.902-1.41 c0.238,0.318,0.505,0.642,0.828,0.964c0.323,0.323,0.646,0.59,0.965,0.828C9.527,40.588,9.151,41.595,8.837,42.45z M13.793,38.994 c-0.492-0.067-1.773-0.365-3.095-1.688c-1.327-1.327-1.623-2.612-1.688-3.095l1.666-3.331c0.47,1.138,1.261,2.492,2.609,3.84 c1.347,1.348,2.699,2.138,3.834,2.608L13.793,38.994z M26.991,38.6l-4.236,4.235l-0.695-6.249l4.931-3.997V38.6z M35.351,23.238 L19.662,35.985c-0.781-0.099-2.841-0.557-4.963-2.679c-2.126-2.126-2.582-4.195-2.68-4.973l12.739-15.689 C32.729,2.826,42.952,1.998,46.005,1.986C45.979,5.032,45.122,15.298,35.351,23.238z M32.991,20.014c2.757,0,5-2.243,5-5 s-2.243-5-5-5s-5,2.243-5,5S30.234,20.014,32.991,20.014z M32.991,12.014c1.654,0,3,1.346,3,3s-1.346,3-3,3s-3-1.346-3-3 S31.337,12.014,32.991,12.014z"/> 
</defs>
<use x="0" y="0" class="bg" xlink:href="#bg"/>
<use x="26" y="26" xlink:href="#i-2309"/>
<use x="0" y="0" xlink:href="#fg"/>
</svg>