<svg viewBox="0 0 100 100" xmlns="http://www.w3.org/2000/svg" xmlns:xlink="http://www.w3.org/1999/xlink" width="100" height="100">
<defs>


 <g id="bg" fill="#c1bebc" class="bg"><path d="M99.925,42.61c-1.622-14.982-18.999-25.346-37.999-31.846C48.911,6.313,33.23,3.753,20.76,5.614 C3.66,8.165-0.773,21.814,0.105,34.812c0.514,7.615,2.582,17.84,7.989,29.247c8.308,17.523,14.814,25.686,23.431,29.113 c10.135,4.032,23.358,0.666,30.402-3.082c6.005-3.195,13.062-8.379,18.999-13.498C86.1,72.131,101.191,54.311,99.925,42.61z"/></g> 
 <path fill="#cd3f42" id="i-1926" d="M12,16v-1H9v-4H8.041c0.291-3.546,2.069-5.761,2.999-6.692c0.052,0.226,0.056,0.539,0.056,0.876 c-0.001,0.981-0.001,2.325,1.197,3.523L13,9.414L18.414,4l-0.707-0.707c-1.197-1.197-2.562-1.197-3.464-1.197h-0.117 c-0.362,0-0.656-0.005-0.819-0.042c-0.088-0.063-0.253-0.363-0.353-0.543C12.643,0.946,12.121,0,11,0C9.785,0,9,0.785,9,2 c0,0.473,0.173,0.835,0.41,1.123C8.209,4.403,6.32,7.019,6.041,11H5.332v4H2v1H0v5h1v27h5V21h18v14h18v13h5V21h1v-5H12z M4,46H3V21 h1V46z M40,33H26v-4h14V33z M40,27H26v-4h14V27z M45,46h-1V21h1V46z M46,19H2v-1h44V19z"/> 
</defs>
<use x="0" y="0" class="bg" xlink:href="#bg"/>
<use x="26" y="26" xlink:href="#i-1926"/>
<use x="0" y="0" xlink:href="#fg"/>
</svg>