<svg viewBox="0 0 100 100" xmlns="http://www.w3.org/2000/svg" xmlns:xlink="http://www.w3.org/1999/xlink" width="100" height="100">
<defs>


 <g id="bg" fill="#c1bebc" class="bg"><path d="M99.925,42.61c-1.622-14.982-18.999-25.346-37.999-31.846C48.911,6.313,33.23,3.753,20.76,5.614 C3.66,8.165-0.773,21.814,0.105,34.812c0.514,7.615,2.582,17.84,7.989,29.247c8.308,17.523,14.814,25.686,23.431,29.113 c10.135,4.032,23.358,0.666,30.402-3.082c6.005-3.195,13.062-8.379,18.999-13.498C86.1,72.131,101.191,54.311,99.925,42.61z"/></g> 
 <path fill="#cd3f42" id="i-655" d="M44,20C44,8.973,35.028,0,24,0C12.972,0,4,8.973,4,20c-2.206,0-4,1.795-4,4v10c0,2.205,1.794,4,4,4h3c2.206,0,4-1.795,4-4 V24c0-2.205-1.794-4-4-4H6c0-9.926,8.075-18,18-18c9.925,0,18,8.074,18,18h-1c-2.206,0-4,1.795-4,4v10 c0,1.747,1.133,3.221,2.697,3.764c-0.774,1.652-3.388,5.009-11.844,5.223C27.402,41.273,25.854,40,24,40c-2.206,0-4,1.795-4,4 s1.794,4,4,4c1.864,0,3.421-1.287,3.862-3.015C38.261,44.734,41.049,39.992,41.76,38H44c2.206,0,4-1.795,4-4V24 C48,21.795,46.206,20,44,20z M7,22c1.103,0,2,0.896,2,2v10c0,1.104-0.897,2-2,2H4c-1.103,0-2-0.896-2-2V24c0-1.104,0.897-2,2-2H7z M24,46c-1.103,0-2-0.896-2-2s0.897-2,2-2c1.103,0,2,0.896,2,2S25.103,46,24,46z M46,34c0,1.104-0.897,2-2,2h-3 c-1.103,0-2-0.896-2-2V24c0-1.104,0.897-2,2-2h3c1.103,0,2,0.896,2,2V34z"/> 
</defs>
<use x="0" y="0" class="bg" xlink:href="#bg"/>
<use x="26" y="26" xlink:href="#i-655"/>
<use x="0" y="0" xlink:href="#fg"/>
</svg>