<svg viewBox="0 0 100 100" xmlns="http://www.w3.org/2000/svg" xmlns:xlink="http://www.w3.org/1999/xlink" width="100" height="100">
<defs>


 <g id="bg" fill="#c1bebc" class="bg"><path d="M99.925,42.61c-1.622-14.982-18.999-25.346-37.999-31.846C48.911,6.313,33.23,3.753,20.76,5.614 C3.66,8.165-0.773,21.814,0.105,34.812c0.514,7.615,2.582,17.84,7.989,29.247c8.308,17.523,14.814,25.686,23.431,29.113 c10.135,4.032,23.358,0.666,30.402-3.082c6.005-3.195,13.062-8.379,18.999-13.498C86.1,72.131,101.191,54.311,99.925,42.61z"/></g> 
 <path fill="#cd3f42" id="i-377" d="M38,33h-8v4H0v2h30v4h8v-4h10v-2H38V33z M36,41h-4v-6h4V41z M30,9V5h-8v4H0v2h22v4h8v-4h18V9H30z M28,13h-4V7h4V13z M18,19 h-8v4H0v2h10v4h8v-4h30v-2H18V19z M16,27h-4v-6h4V27z"/> 
</defs>
<use x="0" y="0" class="bg" xlink:href="#bg"/>
<use x="26" y="26" xlink:href="#i-377"/>
<use x="0" y="0" xlink:href="#fg"/>
</svg>