<svg viewBox="0 0 100 100" xmlns="http://www.w3.org/2000/svg" xmlns:xlink="http://www.w3.org/1999/xlink" width="100" height="100">
<defs>


 <g id="bg" fill="#c1bebc" class="bg"><path d="M99.925,42.61c-1.622-14.982-18.999-25.346-37.999-31.846C48.911,6.313,33.23,3.753,20.76,5.614 C3.66,8.165-0.773,21.814,0.105,34.812c0.514,7.615,2.582,17.84,7.989,29.247c8.308,17.523,14.814,25.686,23.431,29.113 c10.135,4.032,23.358,0.666,30.402-3.082c6.005-3.195,13.062-8.379,18.999-13.498C86.1,72.131,101.191,54.311,99.925,42.61z"/></g> 
 <path fill="#cd3f42" id="i-1425" d="M42,12c-2.852,0-5,1.29-5,3v30c0,1.71,2.148,3,5,3c2.85,0,5-1.29,5-3V15C47,13.29,44.85,12,42,12z M45,45 c0,0.249-1.064,1-3,1c-1.938,0-3-0.751-3-1V17.421C39.826,17.783,40.85,18,42,18c1.148,0,2.173-0.217,3-0.579V45z M42,16 c-1.938,0-3-0.751-3-1s1.062-1,3-1c1.936,0,3,0.751,3,1S43.936,16,42,16z M18,20c-2.852,0-5,1.29-5,3v22c0,1.71,2.148,3,5,3 c2.85,0,5-1.29,5-3V23C23,21.29,20.85,20,18,20z M21,45c0,0.249-1.064,1-3,1c-1.938,0-3-0.751-3-1V25.421 C15.826,25.783,16.85,26,18,26c1.148,0,2.173-0.217,3-0.579V45z M18,24c-1.938,0-3-0.751-3-1s1.062-1,3-1c1.936,0,3,0.751,3,1 S19.936,24,18,24z M6,23c-2.852,0-5,1.29-5,3v19c0,1.71,2.148,3,5,3c2.85,0,5-1.29,5-3V26C11,24.29,8.85,23,6,23z M9,45 c0,0.249-1.064,1-3,1c-1.938,0-3-0.751-3-1V28.421C3.826,28.783,4.85,29,6,29c1.148,0,2.173-0.217,3-0.579V45z M6,27 c-1.938,0-3-0.751-3-1s1.062-1,3-1c1.936,0,3,0.751,3,1S7.936,27,6,27z M6,17c1.555,0,2.823-1.194,2.971-2.712l6.53-1.633 C16.039,13.465,16.957,14,18,14c0.736,0,1.402-0.276,1.925-0.719l7.132,4.16C27.021,17.623,27,17.809,27,18c0,1.654,1.346,3,3,3 s3-1.346,3-3c0-0.58-0.174-1.117-0.459-1.576l8.48-10.602C41.33,5.93,41.655,6,42,6c1.654,0,3-1.346,3-3s-1.346-3-3-3s-3,1.346-3,3 c0,0.58,0.172,1.117,0.458,1.576l-8.481,10.602C30.669,15.07,30.344,15,30,15c-0.736,0-1.404,0.277-1.926,0.719l-7.131-4.159 C20.977,11.378,21,11.191,21,11c0-1.654-1.346-3-3-3c-1.557,0-2.824,1.194-2.971,2.712l-6.531,1.633C7.96,11.535,7.042,11,6,11 c-1.654,0-3,1.346-3,3S4.346,17,6,17z M42,2c0.551,0,1,0.448,1,1s-0.449,1-1,1c-0.553,0-1-0.448-1-1S41.447,2,42,2z M30,17 c0.551,0,1,0.448,1,1s-0.449,1-1,1c-0.553,0-1-0.448-1-1S29.447,17,30,17z M18,10c0.551,0,1,0.448,1,1s-0.449,1-1,1 c-0.553,0-1-0.448-1-1S17.447,10,18,10z M6,13c0.551,0,1,0.448,1,1s-0.449,1-1,1c-0.553,0-1-0.448-1-1S5.447,13,6,13z M30,27 c-2.852,0-5,1.29-5,3v15c0,1.71,2.148,3,5,3c2.85,0,5-1.29,5-3V30C35,28.29,32.85,27,30,27z M33,45c0,0.249-1.064,1-3,1 c-1.938,0-3-0.751-3-1V32.421C27.826,32.783,28.85,33,30,33c1.148,0,2.173-0.217,3-0.579V45z M30,31c-1.938,0-3-0.751-3-1 s1.062-1,3-1c1.936,0,3,0.751,3,1S31.936,31,30,31z"/> 
</defs>
<use x="0" y="0" class="bg" xlink:href="#bg"/>
<use x="26" y="26" xlink:href="#i-1425"/>
<use x="0" y="0" xlink:href="#fg"/>
</svg>