<svg viewBox="0 0 100 100" xmlns="http://www.w3.org/2000/svg" xmlns:xlink="http://www.w3.org/1999/xlink" width="100" height="100">
<defs>


 <g id="bg" fill="#c1bebc" class="bg"><path d="M99.925,42.61c-1.622-14.982-18.999-25.346-37.999-31.846C48.911,6.313,33.23,3.753,20.76,5.614 C3.66,8.165-0.773,21.814,0.105,34.812c0.514,7.615,2.582,17.84,7.989,29.247c8.308,17.523,14.814,25.686,23.431,29.113 c10.135,4.032,23.358,0.666,30.402-3.082c6.005-3.195,13.062-8.379,18.999-13.498C86.1,72.131,101.191,54.311,99.925,42.61z"/></g> 
 <path fill="#cd3f42" id="i-1411" d="M12.252,17.366l-8.67-5l0.998-1.732l8.67,5L12.252,17.366z M35.75,17.366l8.67-5l-1-1.732l-8.67,5L35.75,17.366z M11,22H1v2 h10V22z M36.367,3.58l-1.732-1l-5,8.67l1.732,1L36.367,3.58z M25,0h-2v10h2V0z M18.367,11.25l-5-8.67l-1.732,1l5,8.67L18.367,11.25z M3.58,33.635l1,1.73l8.811-5.09l-1-1.73L3.58,33.635z M37,22v2h10v-2H37z M34.611,30.275l8.809,5.09l1-1.73l-8.809-5.09 L34.611,30.275z M35,23c0,3.09-1.447,5.244-2.848,7.326C30.604,32.633,29,35.018,29,39v7h-3v2h-4v-2h-3v-7 c0-3.982-1.602-6.367-3.152-8.674C14.449,28.244,13,26.09,13,23c0-6.168,4.832-11,11-11S35,16.832,35,23z M27,43h-6v1h6V43z M27,40 h-6v1h6V40z M33,23c0-5.047-3.953-9-9-9s-9,3.953-9,9c0,2.48,1.162,4.209,2.508,6.211c1.516,2.254,3.217,4.786,3.463,8.789h6.061 c0.246-4.003,1.947-6.535,3.461-8.789C31.838,27.209,33,25.48,33,23z M24,16c-3.859,0-7,3.141-7,7h2c0-2.757,2.244-5,5-5 c2.758,0,5,2.243,5,5c0,1.885-1.004,2.634-2.393,3.67C25,27.869,23,29.361,23,33h2c0-2.635,1.299-3.604,2.803-4.727 C29.303,27.155,31,25.888,31,23C31,19.141,27.859,16,24,16z M23,37h2v-2h-2V37z"/> 
</defs>
<use x="0" y="0" class="bg" xlink:href="#bg"/>
<use x="26" y="26" xlink:href="#i-1411"/>
<use x="0" y="0" xlink:href="#fg"/>
</svg>