<svg viewBox="0 0 100 100" xmlns="http://www.w3.org/2000/svg" xmlns:xlink="http://www.w3.org/1999/xlink" width="100" height="100">
<defs>


 <g id="bg" fill="#c1bebc" class="bg"><path d="M99.925,42.61c-1.622-14.982-18.999-25.346-37.999-31.846C48.911,6.313,33.23,3.753,20.76,5.614 C3.66,8.165-0.773,21.814,0.105,34.812c0.514,7.615,2.582,17.84,7.989,29.247c8.308,17.523,14.814,25.686,23.431,29.113 c10.135,4.032,23.358,0.666,30.402-3.082c6.005-3.195,13.062-8.379,18.999-13.498C86.1,72.131,101.191,54.311,99.925,42.61z"/></g> 
 <path fill="#cd3f42" id="i-1657" d="M43,0H13c-2.76,0-5,2.24-5,5v8.586l-1.293-1.293c-0.88-0.88-1.813-1.32-2.773-1.292c-0.914,0.021-1.803,0.457-2.641,1.296 c-1.719,1.719-1.719,3.69,0,5.41L2.586,19l0.707,0.707L8,24.414V42H0v1c0,2.757,2.243,5,5,5h30c2.756,0,5-2.243,5-5V6h8V5 C48,2.243,45.756,0,43,0z M2.708,16.293c-0.941-0.941-0.941-1.641,0-2.582C3.169,13.248,3.598,13.01,3.979,13 c0.392-0.007,0.834,0.229,1.313,0.707L6.586,15L4,17.586L2.708,16.293z M5.414,19L8,16.414L20.586,29L18,31.586L5.414,19z M21.663,30.752l1.433,3.344l-3.344-1.434L21.663,30.752z M5,46c-1.304,0-2.416-0.836-2.829-2H30.1c0.15,0.738,0.465,1.418,0.902,2 H5z M38,5v38c0,1.654-1.346,3-3,3s-3-1.346-3-3v-1H10V26.414l7.429,7.43l9.475,4.061l-4.062-9.475l-7.384-7.385H34v-2.09H14v0.631 l-4-4V5c0-1.65,1.35-3,3-3h26.025C38.391,2.838,38,3.87,38,5z M40.17,4c0.414-1.164,1.525-2,2.83-2c1.303,0,2.416,0.836,2.828,2 H40.17z M34,13.045H14v-2.09h20V13.045z M34,17.045H14v-2.09h20V17.045z M34,9.045H14v-2.09h20V9.045z"/> 
</defs>
<use x="0" y="0" class="bg" xlink:href="#bg"/>
<use x="26" y="26" xlink:href="#i-1657"/>
<use x="0" y="0" xlink:href="#fg"/>
</svg>