<svg viewBox="0 0 100 100" xmlns="http://www.w3.org/2000/svg" xmlns:xlink="http://www.w3.org/1999/xlink" width="100" height="100">
<defs>


 <g id="bg" fill="#c1bebc" class="bg"><path d="M99.925,42.61c-1.622-14.982-18.999-25.346-37.999-31.846C48.911,6.313,33.23,3.753,20.76,5.614 C3.66,8.165-0.773,21.814,0.105,34.812c0.514,7.615,2.582,17.84,7.989,29.247c8.308,17.523,14.814,25.686,23.431,29.113 c10.135,4.032,23.358,0.666,30.402-3.082c6.005-3.195,13.062-8.379,18.999-13.498C86.1,72.131,101.191,54.311,99.925,42.61z"/></g> 
 <path fill="#cd3f42" id="i-1952" d="M48,22v-2h-1.246L42.977,6.781C42.866,5.782,42.026,5,40.999,5c-1.011,0-1.84,0.756-1.973,1.732L33.34,20h-1.341v2h1v2h-1v1 c0,5.756-2.517,11.152-6.452,13.924c-5.561-3.053-9.548-8.818-9.548-13.924v-1h-1v-2h1v-2h-1.42L6.967,6.678 C6.811,5.729,5.992,5,4.999,5C3.944,5,3.087,5.822,3.014,6.859L3.01,6.858L1.132,20H0v2h1.006l-0.007,2h-1v1c0,8.916,9.589,18,19,18 h14c9.39,0,15-9.15,15-18v-1h-1v-2H48z M4.727,8.973C4.816,8.984,4.906,9,4.999,9c0.313,0,0.607-0.079,0.872-0.209L12.275,20H3.152 L4.727,8.973z M2.999,22h10v2h-10V22z M18.999,41c-7.908,0-16.253-7.535-16.952-15h11.992c0.468,5.779,4.906,11.828,11.115,14.99 c0.007,0.004,0.014,0.006,0.02,0.01H18.999z M40.288,8.863C40.51,8.948,40.748,9,40.999,9c0.178,0,0.346-0.031,0.51-0.074L44.673,20 h-9.157L40.288,8.863z M34.999,22h10v2h-10V22z M32.999,41c-1.735,0-3.562-0.379-5.363-1.09c-0.016-0.008-0.031-0.012-0.047-0.02 l-0.003,0.002c-0.007-0.003-0.015-0.005-0.022-0.008c0.008,0.003,0.017,0.002,0.025,0.006c3.71-3.111,6.13-8.311,6.391-13.891 h11.989C45.579,33.54,40.789,41,32.999,41z"/> 
</defs>
<use x="0" y="0" class="bg" xlink:href="#bg"/>
<use x="26" y="26" xlink:href="#i-1952"/>
<use x="0" y="0" xlink:href="#fg"/>
</svg>