<svg viewBox="0 0 100 100" xmlns="http://www.w3.org/2000/svg" xmlns:xlink="http://www.w3.org/1999/xlink" width="100" height="100">
<defs>


 <g id="bg" fill="#c1bebc" class="bg"><path d="M99.925,42.61c-1.622-14.982-18.999-25.346-37.999-31.846C48.911,6.313,33.23,3.753,20.76,5.614 C3.66,8.165-0.773,21.814,0.105,34.812c0.514,7.615,2.582,17.84,7.989,29.247c8.308,17.523,14.814,25.686,23.431,29.113 c10.135,4.032,23.358,0.666,30.402-3.082c6.005-3.195,13.062-8.379,18.999-13.498C86.1,72.131,101.191,54.311,99.925,42.61z"/></g> 
 <path fill="#cd3f42" id="i-1433" d="M5,43h40v2H3V3h2v4h2v2H5v3.999h2v2H5v4h2v2H5v3.999h2v2H5v2.171l12.629-8.119L29.5,19.07l9.25-9.91l-2.6-2.6l9.43-3.141 l-3.141,9.43l-2.279-2.27L30.5,20.93L18.369,22.95L6.626,30.498H7v2H5v4.5h2v2H5V43z M9,41v-9.645l7-4.51V41H9z M11,39h3v-8.486 l-3,1.932V39z M18,25.562l1.104-0.706L25,23.868V41h-7V25.562z M20,39h3V26.231l-3,0.503V39z M40.214,13.454L43,16.225V41h-7V17.965 L40.214,13.454z M40.267,16.327L38,18.754V39h3V17.057L40.267,16.327z M27,23.544l4.501-0.753L34,20.115V41h-7V23.544z M29,39h3 V24.735l-3,0.502V39z"/> 
</defs>
<use x="0" y="0" class="bg" xlink:href="#bg"/>
<use x="26" y="26" xlink:href="#i-1433"/>
<use x="0" y="0" xlink:href="#fg"/>
</svg>