<svg viewBox="0 0 100 100" xmlns="http://www.w3.org/2000/svg" xmlns:xlink="http://www.w3.org/1999/xlink" width="100" height="100">
<defs>


 <g id="bg" fill="#c1bebc" class="bg"><path d="M99.925,42.61c-1.622-14.982-18.999-25.346-37.999-31.846C48.911,6.313,33.23,3.753,20.76,5.614 C3.66,8.165-0.773,21.814,0.105,34.812c0.514,7.615,2.582,17.84,7.989,29.247c8.308,17.523,14.814,25.686,23.431,29.113 c10.135,4.032,23.358,0.666,30.402-3.082c6.005-3.195,13.062-8.379,18.999-13.498C86.1,72.131,101.191,54.311,99.925,42.61z"/></g> 
 <path fill="#cd3f42" id="i-1389" d="M31.197,39.02c-2.449-0.491-5.543-2.235-6.707-2.891l-0.915-0.517l-4.095,8.189l-0.441-2.646l1.177-2.354L18.414,37h-2.829 l-1.802,1.803l1.177,2.354l-0.441,2.646l-4.094-8.188l-0.916,0.515c-1.166,0.657-4.262,2.4-6.706,2.892C0.339,39.515,0,43.147,0,47 v1h34v-1C34,43.147,33.66,39.515,31.197,39.02z M2.012,46c0.106-4.438,0.923-4.967,1.185-5.02c2.229-0.448,4.813-1.749,6.376-2.599 L13.382,46H2.012z M16.414,39h1.171l0.198,0.197L17.382,40h-0.764l-0.401-0.803L16.414,39z M16.181,46l0.667-4h0.306l0.667,4H16.181 z M20.618,46l3.81-7.618c1.561,0.85,4.143,2.15,6.375,2.599c0.262,0.053,1.078,0.579,1.186,5.02H20.618z M39.486,4.735 c-1.084,0-2.033,0.09-2.654,0.168C35.559,2.525,33.023,0,28,0c-3.955,0-6.824,1.625-8.542,4.834 c-0.782-0.171-2.033-0.386-3.397-0.386C11.574,4.448,9,6.836,9,11c0,1.878,0.691,3.456,2.008,4.607 C8.441,18.48,8.76,22.492,8.95,23.791C8.288,24.185,8,24.866,8,26c0,1.62,1.234,2.991,2.099,3.617 c0.214,1.064,0.605,2.55,1.194,3.138l0.192,0.195C12.456,33.94,14.473,36,17,36s4.544-2.06,5.514-3.05l0.194-0.196 c0.587-0.59,0.977-2.073,1.192-3.137C24.766,28.991,26,27.62,26,26c0-1.115-0.279-1.793-0.951-2.204 c0.096-0.652,0.227-2.004,0.002-3.55C26.268,20.692,27.605,21,29,21c3.691,0,6.223-1.868,8.379-3.97 c0.291,0.016,0.697,0.032,1.184,0.032C44.561,17.062,48,14.853,48,11C48,6.96,44.977,4.735,39.486,4.735z M22.597,28.085 L22.109,28.3l-0.094,0.524c-0.192,1.077-0.545,2.286-0.722,2.517l-0.208,0.211C20.307,32.347,18.686,34,17,34 c-1.687,0-3.307-1.653-4.085-2.448l-0.19-0.193c-0.198-0.252-0.543-1.438-0.74-2.535l-0.131-0.506l-0.438-0.227 C11.085,27.92,10,26.935,10,26c0-0.278,0.023-0.438,0.042-0.521C10.313,25.365,11,25.039,11,24l-0.021-0.204 c-0.002-0.016-0.097-0.499-0.133-1.229c0.588-0.591,1.097-1.123,1.537-1.583c2.37-2.486,2.579-2.709,5.31-2.029 c2.1,0.834,3.219,0.998,3.89,1.096c0.642,0.094,0.646,0.097,1.575,1.489c0.054,1.278-0.132,2.234-0.136,2.254L23,24 c0,0.983,0.615,1.328,0.958,1.479C23.977,25.562,24,25.722,24,26C24,26.935,22.914,27.92,22.597,28.085z M11.203,19.324 c0.277-0.925,0.739-1.852,1.51-2.622C12.729,16.685,14.436,15,17,15s4.271,1.685,4.292,1.707c0.44,0.44,0.774,0.934,1.038,1.446 c-0.141-0.031-0.291-0.058-0.458-0.082c-0.629-0.092-1.579-0.23-3.5-1l-0.129-0.041C14.623,16.124,13.629,16.8,11.203,19.324z M38.562,15.062c-0.869,0-1.459-0.058-1.465-0.058l-0.471-0.047l-0.334,0.335C34.066,17.519,31.975,19,29,19 c-1.668,0-3.277-0.556-4.633-1.235c-0.372-0.864-0.899-1.711-1.651-2.463C22.624,15.208,20.43,13,17,13 c-1.905,0-3.409,0.679-4.402,1.299C11.549,13.511,11,12.409,11,11c0-3.063,1.656-4.552,5.061-4.552c1.918,0,3.636,0.505,3.653,0.51 l0.841,0.251l0.358-0.801C22.258,3.401,24.51,2,28,2c3.564,0,6.035,1.483,7.344,4.408l0.322,0.718l0.773-0.143 c0.014-0.002,1.361-0.248,3.047-0.248C43.809,6.735,46,8.171,46,11C46,14.534,41.34,15.062,38.562,15.062z M33,21 c-1.654,0-3,1.346-3,3s1.346,3,3,3s3-1.346,3-3S34.654,21,33,21z M33,25c-0.553,0-1-0.448-1-1s0.447-1,1-1c0.551,0,1,0.448,1,1 S33.551,25,33,25z M29,30c-1.1,0-2-0.9-2-2s0.9-2,2-2s2,0.9,2,2S30.1,30,29,30z"/> 
</defs>
<use x="0" y="0" class="bg" xlink:href="#bg"/>
<use x="26" y="26" xlink:href="#i-1389"/>
<use x="0" y="0" xlink:href="#fg"/>
</svg>